<svg xmlns="http://www.w3.org/2000/svg" xmlns:xlink="http://www.w3.org/1999/xlink" version="1.1" id="Layer_1" x="0px" y="0px" enable-background="new 0 0 1024 1024" xml:space="preserve" viewBox="173.86 401.69 661.37 165.58">
<path fill="#000000" opacity="1.000000" stroke="none" d=" M267.394470,412.442596   C286.295471,413.450165 298.192749,422.877136 300.661652,438.654755   C302.129364,448.034576 299.086792,456.035553 292.742401,462.904938   C291.843567,463.878143 290.854340,464.767578 289.925171,465.713623   C289.830933,465.809570 289.862885,466.029449 289.707428,466.978333   C296.092987,470.001617 300.903107,475.052124 303.613525,481.978882   C313.785095,507.973572 297.027954,532.839966 271.154022,533.144104   C256.495483,533.316406 241.832443,533.113342 227.174210,533.298828   C223.249863,533.348450 221.813858,532.093689 222.066254,528.093872   C222.495728,521.287720 222.528229,514.455139 222.667801,507.632416   C222.858627,498.304321 226.889847,492.843567 235.955566,490.957977   C239.350479,490.251892 239.827423,488.659241 239.752853,485.856293   C239.637695,481.528351 239.666367,477.194427 239.738403,472.864746   C239.764740,471.282684 239.367401,469.469360 241.418259,468.211456   C243.668365,470.035522 243.075470,472.647156 243.096741,474.939178   C243.197144,485.766449 243.341614,496.598572 243.105652,507.421051   C243.013596,511.643097 244.451889,513.005859 248.567993,512.732483   C256.029572,512.236877 263.546997,513.279053 270.995697,511.864868   C278.921326,510.360107 283.473419,504.465881 284.323669,494.319061   C284.991486,486.348846 281.473938,480.181488 274.303802,477.817871   C268.632660,475.948456 262.771698,474.623566 256.676208,475.325256   C252.970764,475.751831 252.765152,474.032806 254.466965,470.498474   C258.127747,475.249420 262.361572,472.768097 266.396362,471.922607   C271.058167,470.945679 272.246429,467.610687 268.833832,464.515747   C265.237732,461.254395 266.677032,459.685120 270.027161,457.965363   C277.021729,454.374695 279.017365,450.237366 277.627350,442.544922   C276.574738,436.719666 272.334747,433.048615 265.013641,432.542542   C259.381989,432.153320 253.696777,432.516663 248.035782,432.580109   C241.042862,432.658478 234.048950,432.718842 227.058258,432.896301   C223.930649,432.975677 222.455856,431.843262 222.638748,428.518677   C222.839798,424.864441 222.875000,421.179596 222.647110,417.529022   C222.398209,413.542206 224.418152,412.057800 227.978592,412.069885   C240.966782,412.113983 253.960114,411.585724 267.394470,412.442596  z"/>
<path fill="#000000" opacity="1.000000" stroke="none" d=" M394.111206,530.107910   C361.464142,513.498840 362.644714,470.834656 382.176453,451.879425   C390.306091,443.989716 400.249786,439.799988 411.325226,439.216858   C429.116699,438.280151 445.491669,441.844879 457.372070,456.836884   C474.704285,478.708588 471.918671,518.067932 439.646973,531.085083   C424.739868,537.097961 409.406342,536.750610 394.111206,530.107910  M425.794159,514.436707   C440.305847,508.139893 445.689728,499.200378 444.711151,483.026550   C443.804321,468.038727 428.239532,455.976105 413.456146,458.804138   C396.560303,462.036316 387.387573,477.797394 392.234589,495.268127   C396.252106,509.749054 411.539917,518.783264 425.794159,514.436707  z"/>
<path fill="#000000" opacity="1.000000" stroke="none" d=" M763.677795,460.445862   C773.665649,477.689056 774.680603,495.123749 764.704895,512.017334   C753.281616,531.362366 734.730103,536.829041 713.553833,534.862976   C695.200562,533.158997 681.590393,523.510925 675.140686,506.407684   C668.204895,488.015686 669.691040,469.721527 683.500732,454.443604   C703.981750,431.784912 745.504028,432.154968 763.677795,460.445862  M728.179504,459.229889   C714.121948,456.039062 703.355957,460.830902 696.627014,473.901001   C691.087280,484.661011 692.040649,495.323730 699.523865,504.828003   C706.883667,514.175659 717.078430,516.631287 728.278442,514.039246   C740.705139,511.163391 748.325134,501.828033 748.744446,490.108643   C749.343689,473.363800 743.530640,464.329315 728.179504,459.229889  z"/>
<path fill="#000000" opacity="1.000000" stroke="none" d=" M492.730957,553.229126   C483.102509,541.263000 483.494995,540.551880 497.783600,537.704468   C503.211487,536.622742 507.065704,537.603943 511.272003,541.253906   C522.725098,551.192078 542.191101,550.017761 552.768494,539.197266   C556.513794,535.365967 558.698547,530.728577 558.652649,525.303345   C558.549805,513.148804 558.824829,501.085632 561.434021,489.086731   C563.075867,481.536316 560.706909,474.328735 555.243835,468.868835   C551.698669,465.325653 550.288269,461.628906 550.764099,456.874023   C550.896057,455.555725 550.774475,454.212463 550.775024,452.880646   C550.778442,445.398041 550.776550,445.405670 557.847473,447.703705   C558.283997,447.845581 558.806763,447.722137 559.792236,447.722137   C559.191223,440.374664 564.237427,440.669006 569.340393,440.701050   C581.259033,440.775909 579.903442,439.757965 580.374023,451.360596   C581.345703,475.319305 581.283569,499.289093 581.217529,523.255127   C581.143372,550.176147 565.069214,562.496826 542.631836,566.161377   C532.242126,567.858276 521.815125,567.789185 511.497192,564.701599   C504.266205,562.537781 498.073914,559.005249 492.730957,553.229126  z"/>
<path fill="#000000" opacity="1.000000" stroke="none" d=" M787.096313,481.000061   C787.056458,475.000793 786.881775,469.497894 787.026550,464.003387   C787.122803,460.349518 785.672058,458.665863 782.031128,459.060547   C777.726135,459.527283 776.328674,457.456451 776.838135,453.445465   C777.025757,451.968353 776.902771,450.449493 776.892334,448.949890   C776.845825,442.234344 776.835266,442.064484 783.489502,441.797974   C786.928894,441.660248 787.709106,440.071136 787.541748,437.051086   C787.265442,432.064850 787.244751,427.065033 787.028870,422.074707   C786.890442,418.873627 788.249451,417.571075 791.492493,417.722961   C795.482910,417.909851 799.500427,417.957672 803.484558,417.713196   C807.511536,417.466064 809.320740,418.840790 809.133484,423.082764   C808.920593,427.903717 809.259766,432.746490 809.187805,437.577240   C809.143799,440.532257 810.282654,441.792145 813.318665,441.722321   C818.980774,441.592133 824.656006,441.879089 830.310608,441.637085   C833.475830,441.501617 834.266296,442.688049 834.357056,445.646271   C834.780334,459.447540 834.853760,459.445282 820.963318,459.416382   C808.974426,459.391449 808.944885,459.391479 808.953552,471.245331   C808.961487,482.077026 808.923889,492.910889 809.129578,503.739563   C809.290222,512.201172 812.988464,515.299316 821.458679,514.915466   C825.800842,514.718628 829.786682,512.915894 834.696106,512.123535   C835.437744,518.199829 835.379578,523.933960 834.722778,529.662109   C834.503052,531.578613 832.768127,532.179016 831.111877,532.663452   C823.294922,534.949768 815.280579,535.403992 807.382202,533.861694   C796.301270,531.697998 789.318604,523.386780 787.688293,511.459229   C786.326721,501.498688 787.374695,491.485077 787.096313,481.000061  M822.965454,446.186035   C821.781372,446.829926 819.954529,446.497040 819.499390,448.430176   C821.396851,449.481018 823.412659,448.889160 825.319519,449.121796   C827.155518,449.345703 829.535828,449.399170 829.365967,446.927460   C829.171021,444.092621 826.727478,445.432953 825.089294,445.583496   C824.607422,445.627808 824.140930,445.838745 822.965454,446.186035  M780.242737,451.830414   C780.823181,453.305176 781.576477,454.716949 783.448059,453.683807   C784.936646,452.862122 785.002502,451.260010 784.775513,449.751678   C784.590454,448.521790 783.889160,447.436768 782.557617,447.541779   C780.429932,447.709503 780.102295,449.369415 780.242737,451.830414  z"/>
<path fill="#000000" opacity="1.000000" stroke="none" d=" M642.997803,412.652008   C654.357666,412.563293 653.035278,412.273560 653.074768,421.915405   C653.187927,449.572052 653.164978,477.229401 653.346680,504.885498   C653.419128,515.923645 650.665833,525.821716 640.331909,531.108215   C629.378845,536.711548 618.077148,535.530396 607.393982,529.411621   C605.959595,528.590027 604.738342,527.405212 603.361877,526.471863   C599.197327,523.647949 597.980530,520.513489 601.614136,516.214355   C604.240540,513.106812 605.390747,508.910248 608.521912,505.706787   C611.800842,508.402954 614.025757,511.700134 618.198364,512.844727   C627.177612,515.307861 630.763672,512.993774 631.061951,503.747009   C631.959045,475.933868 631.567688,448.112610 631.588562,420.294006   C631.594299,412.616516 631.578491,412.616791 639.511963,412.647430   C640.511658,412.651276 641.511414,412.650970 642.997803,412.652008  z"/>
<path fill="#000000" opacity="1.000000" stroke="none" d=" M327.919525,459.000000   C327.892090,441.513397 327.972839,424.525452 327.762665,407.541107   C327.709442,403.239838 329.039734,401.422974 333.469696,401.726410   C337.447296,401.998840 341.469788,401.943756 345.453522,401.710022   C349.699219,401.460846 350.352600,403.724152 350.336334,407.269714   C350.227356,431.084320 350.243134,454.899475 350.219879,478.714478   C350.204132,494.868561 350.070831,511.023987 350.254181,527.175842   C350.304810,531.633606 349.123718,533.671326 344.322571,533.191772   C340.530762,532.813049 336.665436,533.003235 332.841766,533.160645   C329.373260,533.303467 328.148346,531.788757 328.146545,528.403503   C328.134277,505.435638 328.008728,482.467834 327.919525,459.000000  z"/>
<path fill="#000000" opacity="1.000000" stroke="none" d=" M495.436462,451.431427   C500.969177,446.145203 507.101898,442.602722 514.135437,440.643555   C517.731323,439.641907 519.942810,439.947601 519.399414,444.764893   C518.840637,449.718781 522.779846,453.678864 527.798706,453.887085   C530.139526,453.984253 532.439087,453.695343 534.634338,452.745789   C536.666138,451.866974 538.289856,452.221100 538.785461,454.642548   C539.333191,457.318359 537.874390,458.273712 535.426514,458.241364   C534.261963,458.225983 533.085205,458.343964 531.934204,458.217407   C511.723724,455.995819 501.897552,477.723053 504.817657,491.644257   C506.361542,499.004395 509.775146,505.053070 516.159546,509.122589   C519.068542,510.976837 519.732239,512.970337 519.397278,516.528259   C518.966370,521.106323 516.378479,526.035522 520.326538,530.354004   C518.246155,532.977783 515.959839,532.115601 513.766724,531.559753   C496.397461,527.157776 483.408997,511.629700 481.811981,493.017578   C480.473572,477.419189 483.893890,463.249725 495.436462,451.431427  z"/>
<path fill="#000000" opacity="1.000000" stroke="none" d=" M200.390686,498.661987   C194.997650,487.344116 184.442459,483.292358 173.864456,478.367432   C189.168976,473.789032 198.915787,464.020508 204.024292,448.746582   C211.370331,462.717896 219.252899,475.607727 236.893448,478.673035   C221.085541,484.020782 210.386795,493.948151 204.822662,509.809052   C203.400055,506.204071 201.977463,502.599060 200.390686,498.661987  z"/>
<path fill="#000000" opacity="1.000000" stroke="none" d=" M187.219879,455.192871   C188.556442,452.965088 189.690918,451.031342 191.017960,448.769409   C193.061264,454.421875 191.386658,457.786560 186.015320,459.762390   C184.525070,457.909546 186.363922,456.828094 187.219879,455.192871  z"/>
</svg>