<svg xmlns="http://www.w3.org/2000/svg" xmlns:xlink="http://www.w3.org/1999/xlink" version="1.1" id="Layer_1" x="0px" y="0px" enable-background="new 0 0 1024 1024" xml:space="preserve" viewBox="194.2 375.19 636.95 275.11">
<path fill="#000000" opacity="1.000000" stroke="none" d=" M343.006714,501.037781   C351.611237,488.939453 360.216492,477.243439 365.529510,463.601685   C368.631042,455.638306 371.166290,447.525269 368.689362,438.830200   C368.155731,436.956909 367.805817,434.893890 365.617950,433.926941   C363.549927,435.129242 363.084564,437.375549 362.184692,439.251526   C346.632660,471.672668 331.093597,504.100189 315.640930,536.568787   C309.554993,549.356384 309.668762,549.374390 296.894958,543.103027   C287.629578,538.554199 278.369507,533.988403 269.004150,529.652527   C265.505524,528.032715 264.938660,526.479431 266.700958,522.820312   C285.409912,483.974854 303.961731,445.053223 322.377502,406.067871   C324.296631,402.005096 326.045319,400.928467 330.256653,403.071106   C340.640533,408.354126 350.983032,413.863403 361.800507,418.115662   C378.500397,424.680298 382.266785,442.503601 378.709076,455.794159   C374.681152,470.841309 366.920349,483.965179 358.422974,496.766022   C352.806274,505.227325 347.205658,513.700439 341.709991,522.240417   C339.569885,525.566101 337.138184,527.859253 333.203217,525.214111   C329.338226,522.616089 330.351776,519.190552 332.467590,516.043030   C335.810211,511.070496 339.345184,506.227234 343.006714,501.037781  z"/>
<path fill="#000000" opacity="1.000000" stroke="none" d=" M296.017761,574.881226   C294.380554,583.948730 292.790070,592.604736 291.406372,601.293762   C291.076233,603.366943 290.691132,605.067383 288.823608,606.361206   C273.090454,617.261292 257.648987,628.563904 242.435638,640.178955   C242.087357,640.444824 241.527573,640.433716 240.926865,640.587463   C240.832642,640.012756 240.549103,639.456055 240.712875,639.112549   C246.225082,627.549683 251.819946,616.025940 257.292877,604.444641   C258.320557,602.270020 259.792084,601.279724 262.096039,600.656128   C267.023010,599.322388 269.113708,595.124939 267.486633,590.617249   C266.153992,586.925354 261.706726,585.126892 257.957489,586.763611   C254.109879,588.443237 252.666061,592.886841 254.696274,597.239258   C255.346008,598.632080 256.088623,599.869934 255.362518,601.452881   C249.766571,613.652344 244.185745,625.858643 238.693283,637.859558   C236.509918,637.619019 236.722565,636.444031 236.689072,635.521851   C236.061340,618.238037 235.390594,600.954956 233.733795,583.732788   C233.290771,579.127747 234.413071,575.615967 237.929337,572.232178   C246.103180,564.366211 252.824295,555.195129 259.329559,545.932800   C261.590729,542.713196 263.474670,542.025818 267.058960,543.914246   C276.329681,548.798523 285.760284,553.388489 295.223633,557.893066   C298.428375,559.418518 299.915985,561.085022 298.536713,564.813354   C297.391785,567.908142 296.913727,571.249695 296.017761,574.881226  z"/>
<path fill="#000000" opacity="1.000000" stroke="none" d=" M445.532501,534.739258   C441.063934,537.275452 436.601074,538.367737 431.843231,538.363281   C422.025574,538.354187 412.204224,538.222778 402.391998,538.458191   C398.205933,538.558594 396.867706,536.955383 396.895569,532.924866   C397.016357,515.453552 397.011536,497.980225 396.869019,480.509125   C396.835114,476.356171 398.000183,474.497833 402.544556,474.633759   C412.353729,474.927185 422.186829,474.477051 431.991760,474.834747   C439.052185,475.092377 445.583069,477.140045 448.727783,484.447754   C451.768005,491.512604 450.136658,497.755920 444.956268,503.238770   C444.638763,503.574768 444.481262,504.061920 444.259705,504.460114   C456.054474,515.006470 456.599976,525.814026 445.532501,534.739258  M427.422638,525.538574   C428.576050,525.432190 429.743652,525.406433 430.880432,525.205688   C436.100494,524.284424 438.258759,522.039673 437.770966,517.898132   C437.205200,513.094543 433.586060,512.458130 429.748291,512.330688   C426.932404,512.237244 424.111206,512.299194 421.292389,512.298462   C411.609619,512.295959 411.708344,512.291748 412.225861,521.895447   C412.378326,524.724487 413.440399,525.885498 416.160187,525.497192   C419.638855,525.000549 423.105042,525.165710 427.422638,525.538574  M421.465668,499.689240   C424.268341,499.538086 427.136383,500.147675 429.865112,499.190674   C432.811249,498.157379 434.799408,496.054626 434.391113,492.857910   C434.009705,489.871521 431.736603,488.351562 428.736420,488.251251   C425.254913,488.134796 421.743408,488.410431 418.290558,488.062744   C413.367889,487.567047 412.162262,489.673828 412.121704,494.331055   C412.081024,499.001617 413.950165,500.211304 418.037323,499.701660   C418.854370,499.599792 419.695129,499.687927 421.465668,499.689240  z"/>
<path fill="#000000" opacity="1.000000" stroke="none" d=" M273.097900,428.289368   C274.212860,416.518127 273.565430,405.179138 273.803406,393.860962   C273.902008,389.170105 275.308228,387.269653 280.226868,387.717163   C292.274445,388.813232 303.772095,391.887573 314.996887,396.273285   C318.764404,397.745300 317.373566,400.014984 316.315582,402.268494   C309.877808,415.981018 303.366974,429.659271 296.933441,443.373779   C289.509979,459.198547 282.143555,475.050049 274.743835,490.885925   C274.196381,492.057495 274.060181,493.514404 271.608124,494.540863   C272.100800,472.318298 272.583618,450.539673 273.097900,428.289368  z"/>
<path fill="#000000" opacity="1.000000" stroke="none" d=" M526.407593,479.295654   C542.235596,468.153503 572.913452,471.756042 579.502197,497.840454   C582.830627,511.017212 579.464417,522.871460 568.913208,531.628906   C557.397522,541.186890 544.197754,542.751587 530.597168,536.375854   C518.384583,530.650818 512.784180,520.498169 512.647644,507.107513   C512.530457,495.615906 517.156433,486.529541 526.407593,479.295654  M559.235718,492.257690   C558.457153,491.633636 557.722412,490.943115 556.893127,490.395966   C550.063354,485.889740 541.340637,486.240021 534.978271,491.246063   C529.029541,495.926605 526.484558,505.893311 529.277649,513.571228   C532.101074,521.332581 538.661987,525.872009 546.897217,525.726929   C554.502502,525.592957 560.125610,521.918945 563.042542,515.128906   C566.430542,507.242157 565.655334,499.509827 559.235718,492.257690  z"/>
<path fill="#000000" opacity="1.000000" stroke="none" d=" M609.061768,518.872681   C615.483459,525.866821 624.061768,527.663208 632.522827,524.409180   C636.434937,522.904663 635.901123,519.917969 635.687622,516.979126   C635.446533,513.661682 632.749451,514.535767 630.725220,514.354980   C630.229248,514.310608 629.726318,514.345825 629.226562,514.342346   C622.376465,514.294617 619.647583,509.961456 622.167664,503.297638   C622.926636,501.290710 624.508850,501.101135 626.189697,501.086456   C633.018982,501.026917 639.848877,501.053345 646.678223,500.998566   C649.666443,500.974640 650.756165,502.357635 650.662048,505.328247   C650.445862,512.150940 650.446106,518.980896 650.396851,525.808167   C650.382202,527.841309 650.315918,529.744568 648.539551,531.228699   C629.388794,547.228882 597.318787,540.919617 590.475037,516.164978   C584.668518,495.162079 599.447021,474.605804 621.142761,473.579437   C630.268188,473.147736 638.678528,474.807312 646.090027,480.427734   C648.680176,482.391998 649.666199,484.246429 646.550232,486.698273   C644.090088,488.634094 642.840881,491.808472 639.643616,493.765625   C634.479126,489.044617 628.362915,486.340485 621.153931,487.475830   C616.951904,488.137573 613.272949,490.081177 610.294739,493.210022   C604.064514,499.755432 603.491577,509.731537 609.061768,518.872681  z"/>
<path fill="#000000" opacity="1.000000" stroke="none" d=" M264.160278,490.754150   C252.813553,464.972382 241.709259,439.497894 230.379868,414.123901   C228.745834,410.464233 229.385406,408.986786 233.022766,407.488953   C242.216278,403.703186 251.815598,402.019104 261.597382,400.943909   C264.744263,400.598022 266.235596,401.699310 266.288177,405.007935   C266.393890,411.660767 266.704315,418.310394 266.936462,424.961121   C267.725616,447.573120 268.522552,470.184814 269.299316,492.797241   C269.366821,494.762695 269.308258,496.732483 269.308258,499.393921   C265.614960,497.156158 266.000366,493.518890 264.160278,490.754150  z"/>
<path fill="#000000" opacity="1.000000" stroke="none" d=" M211.499115,435.471008   C215.342667,432.227570 219.241684,429.703400 223.231964,427.276520   C226.200668,425.470947 227.807831,425.993561 229.388626,429.169189   C236.875580,444.209625 244.550842,459.156647 252.197968,474.117004   C256.361389,482.262054 260.641937,490.347382 264.776031,498.507141   C265.625000,500.182800 267.200134,501.705627 266.665588,503.839630   C265.594604,504.412964 265.010040,503.798004 264.390106,503.246368   C244.504288,485.551086 224.695801,467.767365 204.657654,450.246216   C200.877609,446.941010 200.832367,444.715179 204.594086,441.744690   C206.935883,439.895477 209.019867,437.719818 211.499115,435.471008  z"/>
<path fill="#000000" opacity="1.000000" stroke="none" d=" M483.512512,524.688965   C491.110046,524.691467 498.272156,524.830200 505.425385,524.637756   C509.165283,524.537109 510.619049,526.047913 510.276123,529.646362   C510.181793,530.636047 510.151886,531.657959 510.285095,532.638916   C510.943787,537.491150 508.772858,539.093262 504.041992,538.949097   C492.233795,538.589355 480.414917,538.462830 468.600769,538.485352   C464.887024,538.492432 463.657593,537.102966 463.679718,533.495605   C463.789917,515.516968 463.798218,497.536926 463.686371,479.558350   C463.662994,475.798096 465.227081,474.722595 468.775604,474.679535   C478.982544,474.555664 478.959808,474.439026 478.938812,484.465057   C478.913696,496.450897 479.053802,508.438934 478.848022,520.421265   C478.790649,523.761047 479.831268,525.074219 483.512512,524.688965  z"/>
<path fill="#000000" opacity="1.000000" stroke="none" d=" M355.278503,376.436096   C359.997589,378.646820 364.456451,380.511932 368.696014,382.785828   C377.271393,387.385345 380.388031,396.230011 376.875793,405.306549   C372.455017,416.731171 372.463867,416.712952 361.576324,411.426605   C352.757629,407.144836 343.928345,402.884430 335.077637,398.669312   C327.559662,395.088959 327.647430,395.173401 331.313812,387.498352   C334.643860,380.527405 339.671783,376.073700 347.589600,375.263916   C350.150269,375.002014 352.537109,375.498474 355.278503,376.436096  z"/>
<path fill="#000000" opacity="1.000000" stroke="none" d=" M765.981567,528.953918   C754.943726,539.834656 741.348755,542.302429 728.209290,536.031921   C715.811279,530.115356 709.498718,517.988586 710.753845,502.498993   C711.781189,489.819916 721.248657,478.587158 733.732056,475.236389   C747.872070,471.440918 762.173584,477.001190 769.666260,489.207123   C777.139465,501.381439 775.699829,517.881531 765.981567,528.953918  M732.421875,480.778839   C731.365234,481.266083 730.269592,481.683746 729.257996,482.251312   C718.308350,488.395233 713.033569,502.235840 716.726074,515.069519   C720.085327,526.744751 731.756958,535.533325 743.244263,534.564880   C754.116638,533.648438 762.732239,528.887268 766.896790,518.237915   C771.245239,507.118286 770.070312,496.510223 761.933655,487.526001   C754.105103,478.881927 744.121643,477.229065 732.421875,480.778839  z"/>
<path fill="#000000" opacity="1.000000" stroke="none" d=" M241.999939,650.283936   C228.195267,650.289368 214.890579,650.296570 201.585907,650.296326   C200.256134,650.296326 198.922119,650.309204 197.597534,650.213379   C195.461151,650.058655 194.118195,648.893860 194.204285,646.717285   C194.281235,644.772156 195.592773,643.802368 197.532593,643.741150   C198.529633,643.709717 199.527344,643.682739 200.524750,643.682617   C223.475204,643.679688 246.425674,643.680725 269.376129,643.681458   C269.875061,643.681458 270.373962,643.688843 270.872894,643.687683   C273.156403,643.682373 275.413574,643.816528 275.408997,646.911255   C275.404633,649.889954 273.289764,650.303345 270.938660,650.301819   C261.459106,650.295898 251.979523,650.289673 241.999939,650.283936  z"/>
<path fill="#000000" opacity="1.000000" stroke="none" d=" M803.661133,502.000092   C803.654663,495.835602 803.450500,490.162018 803.708801,484.509583   C803.892578,480.487915 802.258911,479.193726 798.441833,479.367065   C793.786621,479.578461 789.113586,479.464569 784.450012,479.387115   C782.908203,479.361511 780.800415,479.884491 780.668030,477.333008   C780.544556,474.953583 782.353271,474.769135 784.091553,474.766205   C798.585938,474.741638 813.080322,474.731140 827.574707,474.746490   C829.257263,474.748291 831.094421,474.769409 831.148315,477.178040   C831.201843,479.567902 829.351868,479.802338 827.693176,479.796204   C823.034119,479.778961 818.371399,479.668610 813.718201,479.434204   C809.729004,479.233246 808.250977,480.711639 808.315857,484.931061   C808.551392,500.254883 808.399658,515.584717 808.391479,530.912231   C808.390808,532.244812 808.419678,533.580017 808.348206,534.909363   C808.266785,536.424683 808.202637,538.047607 806.068542,538.080688   C803.932617,538.113708 803.739746,536.535278 803.720886,534.987305   C803.664124,530.322998 803.668152,525.657959 803.662537,520.993164   C803.655090,514.828796 803.661011,508.664429 803.661133,502.000092  z"/>
<path fill="#000000" opacity="1.000000" stroke="none" d=" M694.400330,496.001343   C694.387146,505.635101 694.560913,514.775269 694.302490,523.903198   C694.074097,531.970093 689.393616,537.215454 681.538696,538.973389   C673.486389,540.775391 663.187866,536.790833 660.017883,530.693359   C659.330078,529.370300 659.074585,528.203003 660.425171,527.175842   C662.007690,525.972290 663.161804,526.644531 664.204163,528.012329   C667.170654,531.904785 671.013123,534.334473 675.964722,534.660156   C684.179382,535.200684 689.562805,530.264404 689.653137,521.796326   C689.795044,508.496124 689.692810,495.193329 689.696838,481.891602   C689.697266,480.561554 689.699524,479.231110 689.732178,477.901611   C689.772339,476.266968 690.182434,474.875977 692.202515,474.893097   C694.340576,474.911194 694.470154,476.521484 694.473022,478.045258   C694.484009,483.864227 694.429382,489.683380 694.400330,496.001343  z"/>
<path fill="#000000" opacity="1.000000" stroke="none" d=" M276.387512,537.558838   C286.519714,542.519226 296.312500,547.323730 306.405487,552.275513   C303.779266,556.446838 301.341034,557.544006 297.105957,555.331177   C287.246796,550.179932 277.201599,545.366577 267.088989,540.727661   C263.044403,538.872314 261.894226,536.507751 263.878357,532.269775   C268.491791,532.718933 271.971954,535.815125 276.387512,537.558838  z"/>
</svg>